# Blender 4.1.1
# www.blender.org
mtllib Cubo.mtl
o Cube
v 1.000000 1.000000 -1.000000
v 1.000000 -1.000000 -1.000000
v 1.000000 1.000000 1.000000
v 1.000000 -1.000000 1.000000
v -1.000000 1.000000 -1.000000
v -1.000000 -1.000000 -1.000000
v -1.000000 1.000000 1.000000
v -1.000000 -1.000000 1.000000
vn -0.0000 1.0000 -0.0000
vn -0.0000 -0.0000 1.0000
vn -1.0000 -0.0000 -0.0000
vn -0.0000 -1.0000 -0.0000
vn 1.0000 -0.0000 -0.0000
vn -0.0000 -0.0000 -1.0000
vt 0.251779 0.848195
vt 0.251336 0.981911
vt 0.160052 0.981263
vt 0.160495 0.847546
vt 0.160938 0.713830
vt 0.069211 0.846898
vt 0.069654 0.713181
vt 0.434789 0.715775
vt 0.434346 0.849492
vt 0.343062 0.848843
vt 0.343505 0.715127
vt 0.252664 0.580762
vt 0.252221 0.714478
vt 0.161380 0.580113
s 0
usemtl Material
f 1/1/1 5/2/1 7/3/1 3/4/1
f 4/5/2 3/4/2 7/6/2 8/7/2
f 8/8/3 7/9/3 5/10/3 6/11/3
f 6/12/4 2/13/4 4/5/4 8/14/4
f 2/13/5 1/1/5 3/4/5 4/5/5
f 6/11/6 5/10/6 1/1/6 2/13/6
