# Blender 4.1.1
# www.blender.org
mtllib ladrillo.mtl
o Cube
v 1.000000 3.393271 -1.000000
v 1.000000 -1.000000 -1.000000
v 1.000000 3.393271 1.000000
v 1.000000 -1.000000 1.000000
v -1.000000 3.393271 -1.000000
v -1.000000 -1.000000 -1.000000
v -1.000000 3.393271 1.000000
v -1.000000 -1.000000 1.000000
vn -0.0000 1.0000 -0.0000
vn -0.0000 -0.0000 1.0000
vn -1.0000 -0.0000 -0.0000
vn -0.0000 -1.0000 -0.0000
vn 1.0000 -0.0000 -0.0000
vn -0.0000 -0.0000 -1.0000
vt 0.933032 0.772402
vt 0.928711 0.286960
vt 0.597006 0.288578
vt 0.601326 0.774021
vt 0.564014 0.234874
vt 0.565362 0.827527
vt 0.964247 0.819871
vt 0.962899 0.227219
vt 0.969020 0.246439
vt 0.970368 0.839092
vt 0.565696 0.825477
vt 0.564348 0.232825
vt 0.936205 0.763190
vt 0.933095 0.284595
vt 0.600186 0.286220
vt 0.603297 0.764814
vt 0.968598 0.232900
vt 0.969946 0.825552
s 0
usemtl Material
f 1/1/1 5/2/1 7/3/1 3/4/1
f 4/5/2 3/6/2 7/7/2 8/8/2
f 8/9/3 7/10/3 5/11/3 6/12/3
f 6/13/4 2/14/4 4/15/4 8/16/4
f 2/17/5 1/18/5 3/6/5 4/5/5
f 6/12/6 5/11/6 1/18/6 2/17/6
