# Blender 4.1.1
# www.blender.org
mtllib pared.mtl
o Cube
v 1.000000 10.850303 -1.000000
v 1.000000 -1.000000 -1.000000
v 1.000000 10.850303 1.000000
v 1.000000 -1.000000 1.000000
v -1.000000 10.850303 -1.000000
v -1.000000 -1.000000 -1.000000
v -1.000000 10.850303 1.000000
v -1.000000 -1.000000 1.000000
vn -0.0000 1.0000 -0.0000
vn -0.0000 -0.0000 1.0000
vn -1.0000 -0.0000 -0.0000
vn -0.0000 -1.0000 -0.0000
vn 1.0000 -0.0000 -0.0000
vn -0.0000 -0.0000 -1.0000
vt 0.278383 0.335963
vt 0.277814 0.507532
vt 0.160690 0.506700
vt 0.161258 0.335131
vt 0.161826 0.163562
vt 0.044133 0.334299
vt 0.044702 0.162729
vt 0.513200 0.166058
vt 0.512632 0.337628
vt 0.395507 0.336795
vt 0.396075 0.165226
vt 0.282185 0.012356
vt 0.278951 0.164394
vt 0.165061 0.011524
s 0
usemtl Material
f 1/1/1 5/2/1 7/3/1 3/4/1
f 4/5/2 3/4/2 7/6/2 8/7/2
f 8/8/3 7/9/3 5/10/3 6/11/3
f 6/12/4 2/13/4 4/5/4 8/14/4
f 2/13/5 1/1/5 3/4/5 4/5/5
f 6/11/6 5/10/6 1/1/6 2/13/6
